<svg xmlns="http://www.w3.org/2000/svg" viewBox="0 0 20 20" fill="currentColor">
  <path d="M15.821 14.121c-.241.682-1.199 1.246-1.963 1.411-.523.111-1.205.199-3.503-.748-2.581-1.069-6.165-4.878-6.165-7.413 0-1.29.744-2.792 2.045-2.792.626 0 .764.012.97.506.241.582.829 2.016.899 2.163.289.603-.294.956-.717 1.481-.135.158-.288.329-.117.623.17.288.758 1.246 1.622 2.015 1.116.994 2.021 1.312 2.345 1.447.241.1.529.077.705-.111.223-.241.5-.641.782-1.035.199-.282.452-.317.717-.217.179.062 2.454 1.118 2.55 1.287.071.123.071.705-.17 1.387ZM10.002 0h-.005C4.484 0 0 4.485 0 10c0 2.187.705 4.215 1.904 5.861l-1.246 3.716 3.843-1.228C6.082 19.395 7.969 20 10.002 20 15.515 20 20 15.515 20 10S15.515 0 10.002 0Z"/>
</svg>
